PathFileType	4	(X/Y/Z)	s11c0201.trc
DataRate	CameraRate	NumFrames	NumMarkers	Units	OrigDataRate	OrigDataStartFrame	OrigNumFrames
200	200	6	48	mm	200	1500	2000
Frame#	Time	racr			lacr			c7			jug			rlel			rdr			llel			ldr			s2			lic			ric			lasi			rasi			rpsi			lpsi			rgt			lgt			rth1			rth2			rth3			rth4			rlfc			rmfc			rsh1			rsh2			rsh3			rsh4			rlmal			rcal			rtoe			rmt5			lth1			lth2			lth4			lth3			llfc			lmfc			llmal			lcal			lmt5			lsh1			lsh2			lsh3			lsh4			ltoe			SBIKE			LBIKE			RBIKE			
		X1	Y1	Z1	X2	Y2	Z2	X3	Y3	Z3	X4	Y4	Z4	X5	Y5	Z5	X6	Y6	Z6	X7	Y7	Z7	X8	Y8	Z8	X9	Y9	Z9	X10	Y10	Z10	X11	Y11	Z11	X12	Y12	Z12	X13	Y13	Z13	X14	Y14	Z14	X15	Y15	Z15	X16	Y16	Z16	X17	Y17	Z17	X18	Y18	Z18	X19	Y19	Z19	X20	Y20	Z20	X21	Y21	Z21	X22	Y22	Z22	X23	Y23	Z23	X24	Y24	Z24	X25	Y25	Z25	X26	Y26	Z26	X27	Y27	Z27	X28	Y28	Z28	X29	Y29	Z29	X30	Y30	Z30	X31	Y31	Z31	X32	Y32	Z32	X33	Y33	Z33	X34	Y34	Z34	X35	Y35	Z35	X36	Y36	Z36	X37	Y37	Z37	X38	Y38	Z38	X39	Y39	Z39	X40	Y40	Z40	X41	Y41	Z41	X42	Y42	Z42	X43	Y43	Z43	X44	Y44	Z44	X45	Y45	Z45	X46	Y46	Z46	X47	Y47	Z47	X48	Y48	Z48	
1500	7.5000	493.401287	1352.028016	-91.337870	508.005048	1333.273807	-398.889826	457.257587	1435.775271	-251.210802	455.899260	1252.006228	-248.914297	557.239256	1130.799782	54.821711	757.174295	970.286856	-59.406357	484.179475	1080.526307	-578.413374	756.614928	959.921275	-482.242322	-113.056868	1200.404012	-265.295537	108.204487	1214.816388	-465.791383	90.918271	1208.656496	-51.729183	132.374918	1140.161349	-430.761089	125.443110	1142.425991	-88.304462	-68.370440	1270.583012	-215.229306	-72.593016	1264.976445	-306.804210	57.364298	1051.755356	-52.718382	32.650707	1085.739501	-474.353149	0.000000	0.000000	-0.000000	0.000000	0.000000	-0.000000	266.788959	817.651776	-93.038629	256.800493	918.830606	-81.665755	332.399056	736.155601	-114.571509	317.493401	712.116196	-237.162709	300.330076	581.046566	-87.857642	308.037114	494.378350	-101.237652	273.099238	413.826632	-97.042601	328.900155	492.132889	-135.198023	242.947510	274.672637	-101.764451	179.551109	246.151342	-145.362864	466.460031	254.772024	-150.904009	404.354812	216.899463	-78.915126	166.889111	1021.305411	-490.505222	251.611883	1007.000040	-490.071152	268.210039	1038.745826	-480.119913	320.435851	948.595772	-490.408986	429.518304	875.145964	-471.610173	443.855317	869.606191	-341.477436	125.191067	590.065861	-420.744505	65.362473	604.753403	-380.048141	149.938746	417.017426	-451.003184	342.033163	788.796219	-480.600199	301.189331	716.537437	-458.378751	226.484491	670.724002	-447.940305	326.687860	697.960480	-436.011272	227.365062	353.781674	-385.631408	-215.458243	956.551761	-257.225752	-17.822927	80.681967	-460.988011	-17.850597	80.696443	-62.116746	
1501	7.5050	495.203765	1352.716069	-93.323615	506.818497	1334.830783	-401.997920	457.869579	1436.924849	-253.968930	455.878902	1253.178520	-251.523761	558.318281	1131.217972	54.413717	757.580171	970.153865	-59.550762	482.875975	1079.935969	-578.998419	756.852882	959.979050	-482.815000	-114.708439	1202.203827	-259.605323	107.744556	1217.071200	-465.630274	91.599549	1208.430733	-50.396646	131.317058	1143.661123	-428.860005	127.227651	1142.321634	-85.821373	-67.494068	1271.233131	-213.451096	-72.114881	1266.052354	-304.549421	56.040954	1050.898142	-52.510442	32.701989	1089.379984	-473.557016	0.000000	0.000000	-0.000000	0.000000	0.000000	-0.000000	259.740001	811.492871	-92.519148	252.316533	912.778114	-81.064656	323.628821	728.645046	-114.187538	306.551705	703.760448	-236.899773	292.791729	573.870597	-87.913859	300.457903	487.244109	-101.737152	265.907510	406.602365	-97.286767	321.756174	485.178708	-136.297154	235.410418	267.111614	-102.025193	172.295461	238.636480	-145.763750	459.044344	246.674402	-150.661270	396.935722	208.811215	-78.930590	167.892635	1027.775366	-490.254640	252.835843	1015.055596	-489.884826	268.787864	1047.216716	-479.699300	322.826329	958.113528	-490.738571	434.761230	887.142571	-472.641523	449.424391	881.772783	-341.378215	133.622202	598.508741	-421.252152	73.947878	613.267135	-380.467739	157.225575	424.698473	-450.332999	348.802324	799.473003	-481.412809	308.599576	727.001370	-459.088175	234.321121	680.505314	-448.432229	334.290093	708.578684	-436.783006	234.568484	361.373542	-385.692250	-215.443415	956.600447	-257.268074	-17.813505	80.734465	-461.051836	-17.855889	80.748189	-62.161152	
1502	7.5100	497.014176	1353.142362	-95.102809	505.629873	1336.340897	-405.211270	458.532441	1437.631226	-256.351619	456.038829	1253.908799	-253.694767	559.523767	1131.600760	54.151100	757.998277	969.997267	-59.800297	481.539604	1079.361559	-579.237852	757.085864	960.038843	-483.149447	-112.149720	1202.082053	-259.699194	107.456058	1219.631255	-465.959262	92.586266	1208.500494	-49.321881	130.310070	1147.433909	-426.940025	128.598198	1142.573544	-83.938759	-66.467592	1271.508923	-211.982447	-71.574284	1267.247019	-302.337005	54.770007	1050.299065	-52.242110	32.676596	1093.331237	-472.803658	0.000000	0.000000	-0.000000	0.000000	0.000000	-0.000000	252.866007	805.659492	-91.609334	247.704312	907.267051	-80.176175	314.799798	721.764591	-113.538057	295.773419	695.934406	-236.332374	284.341763	567.377850	-87.625232	292.516825	480.814328	-101.664940	258.294768	400.020959	-97.309588	313.619145	479.116085	-136.361277	227.644490	260.020403	-102.314978	164.619510	231.897290	-146.112719	451.391062	238.579624	-150.544389	388.947377	201.016914	-78.923071	168.616662	1034.187172	-490.126331	253.824717	1023.188809	-489.746872	269.175401	1055.483382	-479.206201	324.711549	967.658360	-491.148100	439.801450	898.720132	-473.211086	454.757478	893.310970	-341.785448	141.798046	606.521928	-421.706818	82.335632	621.184660	-380.764301	165.192931	432.298072	-450.171864	355.197564	810.338274	-482.276681	315.847629	737.392041	-459.858216	242.020285	690.215860	-448.968307	341.800833	719.251603	-437.728876	242.295467	368.868752	-385.792129	-215.424513	956.638793	-257.245227	-17.825132	80.787473	-461.038334	-17.854251	80.768728	-62.154336	
1503	7.5150	498.757434	1353.348023	-96.787900	504.492460	1337.790104	-408.495735	459.301349	1438.214436	-258.843099	456.107351	1254.521531	-255.936859	560.693878	1131.990896	53.932312	758.455203	969.808321	-60.104708	480.536096	1078.953240	-579.819337	757.334629	960.083962	-483.218095	-111.145286	1202.815052	-257.667433	107.203680	1222.425395	-466.484404	93.625497	1208.645239	-48.346597	129.397617	1151.501896	-425.483629	129.670591	1143.474456	-82.543683	-64.763637	1272.721372	-209.234512	-70.728902	1268.501870	-300.742305	53.579164	1049.747640	-51.960612	32.589970	1097.444665	-472.213198	0.000000	0.000000	-0.000000	0.000000	0.000000	-0.000000	246.207011	800.421392	-90.388702	243.283689	902.182386	-79.158079	306.228035	715.441115	-112.696573	287.208951	689.030981	-233.702246	275.849074	561.351069	-86.946755	284.163700	474.701386	-101.326636	250.172034	393.984257	-97.224322	305.312249	473.233935	-136.017487	219.451220	253.805582	-102.453913	156.691919	225.985378	-146.518401	443.606443	230.915953	-150.486809	380.650964	193.723805	-78.800780	169.224895	1040.558500	-490.056528	254.602416	1031.098969	-489.636599	269.331919	1063.685145	-478.738135	326.492774	977.074544	-491.590004	444.486051	910.558101	-474.299355	459.938718	903.717651	-343.005332	149.832996	614.062774	-422.122047	90.363428	628.525623	-381.104279	173.562209	439.630546	-450.203748	361.461436	821.237194	-483.080545	322.913618	747.835695	-460.681750	249.597388	699.846365	-449.493317	349.035928	729.857373	-438.823630	250.790185	376.262351	-385.906358	-215.392920	956.661906	-257.232602	-17.818235	80.796740	-461.027840	-17.845291	80.803932	-62.171955	
1504	7.5200	500.456022	1353.474460	-98.509731	503.351617	1339.182142	-411.791960	460.058897	1438.576706	-261.186524	456.256547	1254.914754	-258.004408	561.990297	1132.329316	53.944676	759.050779	969.655359	-60.380374	479.718053	1078.708560	-580.344899	757.576139	960.175924	-483.059441	-110.579637	1204.322481	-255.777059	106.563330	1224.849056	-466.497924	94.805196	1209.270608	-47.215671	128.358202	1155.257188	-423.538811	130.787504	1143.929672	-81.080757	-63.139991	1273.985164	-206.646598	-69.971593	1269.888279	-298.902707	52.470649	1049.107274	-51.701041	32.468976	1101.635774	-471.900892	0.000000	0.000000	-0.000000	0.000000	0.000000	-0.000000	239.755581	795.677422	-88.897814	238.921448	897.524961	-77.941462	298.100073	709.770743	-111.628028	277.581650	683.672571	-232.666958	267.290498	555.961518	-86.042660	275.628175	469.573028	-101.062491	241.466172	388.528592	-96.852674	296.815057	467.985511	-135.118470	210.844270	248.414132	-102.691403	148.329721	220.899505	-146.708847	435.342813	223.611467	-150.239703	372.013088	186.991906	-78.731222	169.697390	1046.808419	-490.044223	255.185792	1039.025512	-489.518402	269.284410	1071.769024	-478.259304	328.044501	986.263454	-492.171611	448.743773	922.039355	-474.885268	464.833191	914.881395	-343.246534	157.627033	621.234962	-422.502662	98.230174	635.051598	-381.349229	182.347695	446.617709	-450.173269	367.512951	832.029811	-483.805313	329.735488	758.136146	-461.527766	257.007319	709.401303	-450.074605	356.192749	740.411892	-439.822034	259.993478	384.013838	-386.273385	-215.372365	956.707072	-257.214459	-17.791054	80.795201	-461.075029	-17.835606	80.811930	-62.177853	
1505	7.5250	502.167219	1353.408464	-100.100630	502.174510	1340.513328	-415.143130	460.896390	1439.041082	-263.623058	456.156984	1255.419210	-260.246186	563.496402	1132.878376	53.904357	759.647485	969.530421	-60.744797	479.087454	1078.501347	-580.763738	757.807978	960.317911	-482.725593	-109.868584	1205.467659	-253.943369	106.108955	1227.577035	-466.913382	96.339697	1209.754759	-46.444086	127.346564	1158.944984	-421.700395	131.911722	1144.376611	-80.084367	-59.009381	1273.867561	-206.187422	-69.748011	1271.432810	-296.686308	51.396163	1048.481409	-51.339503	32.220069	1105.956411	-471.585062	0.000000	0.000000	-0.000000	0.000000	0.000000	-0.000000	233.653508	791.388346	-87.024290	234.492003	893.142039	-76.771379	290.472646	704.779467	-110.335094	267.573820	679.402683	-231.133049	258.928016	551.090739	-84.818630	266.901446	464.627097	-99.734438	232.413547	383.947788	-96.057920	287.470073	462.943583	-133.723083	202.125105	243.713717	-102.579109	139.917848	216.741474	-146.661992	426.919379	216.637686	-150.110899	363.264279	180.510766	-78.526183	170.038761	1052.972626	-490.001209	255.655942	1046.709096	-489.448458	269.149681	1079.601894	-477.753638	329.415298	995.333488	-492.801601	452.653384	932.977885	-475.762462	469.416432	925.745969	-343.498224	165.512517	628.188371	-422.782202	105.580634	640.967164	-381.556284	191.462870	453.114477	-450.172334	373.124883	842.788577	-484.595791	336.199481	768.447953	-462.591280	264.156204	718.690602	-450.605635	363.098728	750.863985	-440.986732	269.577412	391.107324	-386.297505	-215.325273	956.750188	-257.170445	-17.819160	80.832459	-461.033052	-17.836852	80.831908	-62.156132	
